<mxfile host="app.diagrams.net" modified="2024-05-08T12:12:56.794Z" agent="Mozilla/5.0 (Windows NT 10.0; Win64; x64) AppleWebKit/537.36 (KHTML, like Gecko) Chrome/124.0.0.0 Safari/537.36" etag="DIAhbM4bIagkHn5ddnA5" version="24.3.1" type="github">
  <diagram name="Сторінка-1" id="ZnFWtZYvFe9aqEBrCpGH">
    <mxGraphModel dx="1105" dy="558" grid="1" gridSize="10" guides="1" tooltips="1" connect="1" arrows="1" fold="1" page="1" pageScale="1" pageWidth="827" pageHeight="1169" math="0" shadow="0">
      <root>
        <mxCell id="0" />
        <mxCell id="1" parent="0" />
        <mxCell id="QRCtdJCTEQNHworazBfF-2" value=":Менеджер" style="shape=umlLifeline;perimeter=lifelinePerimeter;whiteSpace=wrap;html=1;container=1;dropTarget=0;collapsible=0;recursiveResize=0;outlineConnect=0;portConstraint=eastwest;newEdgeStyle={&quot;curved&quot;:0,&quot;rounded&quot;:0};" parent="1" vertex="1">
          <mxGeometry x="70" y="200" width="100" height="370" as="geometry" />
        </mxCell>
        <mxCell id="QRCtdJCTEQNHworazBfF-3" value="" style="html=1;points=[[0,0,0,0,5],[0,1,0,0,-5],[1,0,0,0,5],[1,1,0,0,-5]];perimeter=orthogonalPerimeter;outlineConnect=0;targetShapes=umlLifeline;portConstraint=eastwest;newEdgeStyle={&quot;curved&quot;:0,&quot;rounded&quot;:0};" parent="QRCtdJCTEQNHworazBfF-2" vertex="1">
          <mxGeometry x="45" y="90" width="10" height="270" as="geometry" />
        </mxCell>
        <mxCell id="QRCtdJCTEQNHworazBfF-8" value=":Проєкт" style="shape=umlLifeline;perimeter=lifelinePerimeter;whiteSpace=wrap;html=1;container=1;dropTarget=0;collapsible=0;recursiveResize=0;outlineConnect=0;portConstraint=eastwest;newEdgeStyle={&quot;curved&quot;:0,&quot;rounded&quot;:0};" parent="1" vertex="1">
          <mxGeometry x="314" y="200" width="100" height="310" as="geometry" />
        </mxCell>
        <mxCell id="QRCtdJCTEQNHworazBfF-9" value="" style="html=1;points=[[0,0,0,0,5],[0,1,0,0,-5],[1,0,0,0,5],[1,1,0,0,-5]];perimeter=orthogonalPerimeter;outlineConnect=0;targetShapes=umlLifeline;portConstraint=eastwest;newEdgeStyle={&quot;curved&quot;:0,&quot;rounded&quot;:0};" parent="QRCtdJCTEQNHworazBfF-8" vertex="1">
          <mxGeometry x="45" y="90" width="10" height="220" as="geometry" />
        </mxCell>
        <mxCell id="QRCtdJCTEQNHworazBfF-10" value=":Звіт" style="shape=umlLifeline;perimeter=lifelinePerimeter;whiteSpace=wrap;html=1;container=1;dropTarget=0;collapsible=0;recursiveResize=0;outlineConnect=0;portConstraint=eastwest;newEdgeStyle={&quot;curved&quot;:0,&quot;rounded&quot;:0};" parent="1" vertex="1">
          <mxGeometry x="190" y="245" width="100" height="315" as="geometry" />
        </mxCell>
        <mxCell id="QRCtdJCTEQNHworazBfF-11" value="" style="html=1;points=[[0,0,0,0,5],[0,1,0,0,-5],[1,0,0,0,5],[1,1,0,0,-5]];perimeter=orthogonalPerimeter;outlineConnect=0;targetShapes=umlLifeline;portConstraint=eastwest;newEdgeStyle={&quot;curved&quot;:0,&quot;rounded&quot;:0};" parent="QRCtdJCTEQNHworazBfF-10" vertex="1">
          <mxGeometry x="45" y="50" width="10" height="260" as="geometry" />
        </mxCell>
        <mxCell id="QRCtdJCTEQNHworazBfF-16" value="" style="endArrow=open;endFill=1;endSize=12;html=1;rounded=0;" parent="1" source="QRCtdJCTEQNHworazBfF-2" target="QRCtdJCTEQNHworazBfF-10" edge="1">
          <mxGeometry width="160" relative="1" as="geometry">
            <mxPoint x="119.54761904761904" y="330" as="sourcePoint" />
            <mxPoint x="235" y="330" as="targetPoint" />
            <Array as="points">
              <mxPoint x="170" y="320" />
            </Array>
          </mxGeometry>
        </mxCell>
        <mxCell id="QRCtdJCTEQNHworazBfF-17" value="Створення&lt;div&gt;{t=1 секунда}&lt;/div&gt;" style="edgeLabel;html=1;align=center;verticalAlign=middle;resizable=0;points=[];" parent="QRCtdJCTEQNHworazBfF-16" vertex="1" connectable="0">
          <mxGeometry x="-0.2407" y="-1" relative="1" as="geometry">
            <mxPoint y="-21" as="offset" />
          </mxGeometry>
        </mxCell>
        <mxCell id="QRCtdJCTEQNHworazBfF-18" value="" style="endArrow=open;endFill=1;endSize=12;html=1;rounded=0;" parent="1" edge="1">
          <mxGeometry width="160" relative="1" as="geometry">
            <mxPoint x="235.45" y="520" as="sourcePoint" />
            <mxPoint x="119.99761904761904" y="520" as="targetPoint" />
            <Array as="points">
              <mxPoint x="180.45" y="520" />
            </Array>
          </mxGeometry>
        </mxCell>
        <mxCell id="QRCtdJCTEQNHworazBfF-19" value="додати {2 секунди}" style="edgeLabel;html=1;align=center;verticalAlign=middle;resizable=0;points=[];" parent="QRCtdJCTEQNHworazBfF-18" vertex="1" connectable="0">
          <mxGeometry x="0.279" y="1" relative="1" as="geometry">
            <mxPoint x="19" y="-21" as="offset" />
          </mxGeometry>
        </mxCell>
        <mxCell id="QRCtdJCTEQNHworazBfF-21" value="" style="endArrow=open;endFill=1;endSize=12;html=1;rounded=0;" parent="1" source="QRCtdJCTEQNHworazBfF-11" target="QRCtdJCTEQNHworazBfF-9" edge="1">
          <mxGeometry width="160" relative="1" as="geometry">
            <mxPoint x="240" y="420" as="sourcePoint" />
            <mxPoint x="355" y="420" as="targetPoint" />
            <Array as="points">
              <mxPoint x="290" y="420" />
            </Array>
          </mxGeometry>
        </mxCell>
        <mxCell id="QRCtdJCTEQNHworazBfF-22" value="Пошук та запит&amp;nbsp;&lt;div&gt;інформації&lt;div&gt;{t=4 секунди}&lt;/div&gt;&lt;/div&gt;" style="edgeLabel;html=1;align=center;verticalAlign=middle;resizable=0;points=[];" parent="QRCtdJCTEQNHworazBfF-21" vertex="1" connectable="0">
          <mxGeometry x="-0.2407" y="-1" relative="1" as="geometry">
            <mxPoint x="2" y="-31" as="offset" />
          </mxGeometry>
        </mxCell>
        <mxCell id="QRCtdJCTEQNHworazBfF-24" value="" style="endArrow=block;dashed=1;endFill=0;endSize=12;html=1;rounded=0;" parent="1" source="QRCtdJCTEQNHworazBfF-9" target="QRCtdJCTEQNHworazBfF-11" edge="1">
          <mxGeometry width="160" relative="1" as="geometry">
            <mxPoint x="310" y="440" as="sourcePoint" />
            <mxPoint x="470" y="440" as="targetPoint" />
            <Array as="points">
              <mxPoint x="310" y="490" />
            </Array>
          </mxGeometry>
        </mxCell>
        <mxCell id="QRCtdJCTEQNHworazBfF-25" value="Отримання і&amp;nbsp;&lt;div&gt;Заповнення звіту&lt;/div&gt;&lt;div&gt;{&amp;lt;10 секунд}&lt;/div&gt;" style="edgeLabel;html=1;align=center;verticalAlign=middle;resizable=0;points=[];" parent="QRCtdJCTEQNHworazBfF-24" vertex="1" connectable="0">
          <mxGeometry x="0.3124" y="-2" relative="1" as="geometry">
            <mxPoint x="16" y="-28" as="offset" />
          </mxGeometry>
        </mxCell>
        <mxCell id="IxtSbyAaC3HHmyYaRuv1-1" value=":Менеджер" style="shape=umlLifeline;perimeter=lifelinePerimeter;whiteSpace=wrap;html=1;container=1;dropTarget=0;collapsible=0;recursiveResize=0;outlineConnect=0;portConstraint=eastwest;newEdgeStyle={&quot;curved&quot;:0,&quot;rounded&quot;:0};" vertex="1" parent="1">
          <mxGeometry x="830" y="190" width="100" height="680" as="geometry" />
        </mxCell>
        <mxCell id="IxtSbyAaC3HHmyYaRuv1-2" value="" style="html=1;points=[[0,0,0,0,5],[0,1,0,0,-5],[1,0,0,0,5],[1,1,0,0,-5]];perimeter=orthogonalPerimeter;outlineConnect=0;targetShapes=umlLifeline;portConstraint=eastwest;newEdgeStyle={&quot;curved&quot;:0,&quot;rounded&quot;:0};" vertex="1" parent="IxtSbyAaC3HHmyYaRuv1-1">
          <mxGeometry x="45" y="90" width="10" height="240" as="geometry" />
        </mxCell>
        <mxCell id="IxtSbyAaC3HHmyYaRuv1-3" value=":Робітник" style="shape=umlLifeline;perimeter=lifelinePerimeter;whiteSpace=wrap;html=1;container=1;dropTarget=0;collapsible=0;recursiveResize=0;outlineConnect=0;portConstraint=eastwest;newEdgeStyle={&quot;curved&quot;:0,&quot;rounded&quot;:0};" vertex="1" parent="1">
          <mxGeometry x="1270" y="190" width="100" height="450" as="geometry" />
        </mxCell>
        <mxCell id="IxtSbyAaC3HHmyYaRuv1-4" value="" style="html=1;points=[[0,0,0,0,5],[0,1,0,0,-5],[1,0,0,0,5],[1,1,0,0,-5]];perimeter=orthogonalPerimeter;outlineConnect=0;targetShapes=umlLifeline;portConstraint=eastwest;newEdgeStyle={&quot;curved&quot;:0,&quot;rounded&quot;:0};" vertex="1" parent="IxtSbyAaC3HHmyYaRuv1-3">
          <mxGeometry x="45" y="90" width="10" height="250" as="geometry" />
        </mxCell>
        <mxCell id="IxtSbyAaC3HHmyYaRuv1-9" value=":Звіт" style="shape=umlLifeline;perimeter=lifelinePerimeter;whiteSpace=wrap;html=1;container=1;dropTarget=0;collapsible=0;recursiveResize=0;outlineConnect=0;portConstraint=eastwest;newEdgeStyle={&quot;curved&quot;:0,&quot;rounded&quot;:0};" vertex="1" parent="1">
          <mxGeometry x="950" y="235" width="100" height="680" as="geometry" />
        </mxCell>
        <mxCell id="IxtSbyAaC3HHmyYaRuv1-10" value="" style="html=1;points=[[0,0,0,0,5],[0,1,0,0,-5],[1,0,0,0,5],[1,1,0,0,-5]];perimeter=orthogonalPerimeter;outlineConnect=0;targetShapes=umlLifeline;portConstraint=eastwest;newEdgeStyle={&quot;curved&quot;:0,&quot;rounded&quot;:0};" vertex="1" parent="IxtSbyAaC3HHmyYaRuv1-9">
          <mxGeometry x="45" y="50" width="10" height="240" as="geometry" />
        </mxCell>
        <mxCell id="IxtSbyAaC3HHmyYaRuv1-13" value="" style="endArrow=open;endFill=1;endSize=12;html=1;rounded=0;" edge="1" parent="1" source="IxtSbyAaC3HHmyYaRuv1-1" target="IxtSbyAaC3HHmyYaRuv1-9">
          <mxGeometry width="160" relative="1" as="geometry">
            <mxPoint x="879.547619047619" y="320" as="sourcePoint" />
            <mxPoint x="995" y="320" as="targetPoint" />
            <Array as="points">
              <mxPoint x="930" y="310" />
            </Array>
          </mxGeometry>
        </mxCell>
        <mxCell id="IxtSbyAaC3HHmyYaRuv1-14" value="Створення&lt;div&gt;{t=1 секунда}&lt;/div&gt;" style="edgeLabel;html=1;align=center;verticalAlign=middle;resizable=0;points=[];" vertex="1" connectable="0" parent="IxtSbyAaC3HHmyYaRuv1-13">
          <mxGeometry x="-0.2407" y="-1" relative="1" as="geometry">
            <mxPoint y="-21" as="offset" />
          </mxGeometry>
        </mxCell>
        <mxCell id="IxtSbyAaC3HHmyYaRuv1-15" value="" style="endArrow=open;endFill=1;endSize=12;html=1;rounded=0;" edge="1" parent="1">
          <mxGeometry width="160" relative="1" as="geometry">
            <mxPoint x="995" y="432" as="sourcePoint" />
            <mxPoint x="879.4473684210527" y="432" as="targetPoint" />
            <Array as="points">
              <mxPoint x="970" y="432" />
              <mxPoint x="920" y="432" />
            </Array>
          </mxGeometry>
        </mxCell>
        <mxCell id="IxtSbyAaC3HHmyYaRuv1-16" value="додати {2 секунди}" style="edgeLabel;html=1;align=center;verticalAlign=middle;resizable=0;points=[];" vertex="1" connectable="0" parent="IxtSbyAaC3HHmyYaRuv1-15">
          <mxGeometry x="0.279" y="1" relative="1" as="geometry">
            <mxPoint x="19" y="-21" as="offset" />
          </mxGeometry>
        </mxCell>
        <mxCell id="IxtSbyAaC3HHmyYaRuv1-24" value="" style="endArrow=open;endFill=1;endSize=12;html=1;rounded=0;" edge="1" parent="1">
          <mxGeometry width="160" relative="1" as="geometry">
            <mxPoint x="1005" y="355" as="sourcePoint" />
            <mxPoint x="1315" y="355" as="targetPoint" />
            <Array as="points">
              <mxPoint x="1075" y="355" />
            </Array>
          </mxGeometry>
        </mxCell>
        <mxCell id="IxtSbyAaC3HHmyYaRuv1-25" value="Запит&amp;nbsp;&lt;div&gt;інформації&lt;div&gt;{t&amp;lt;5 секунд}&lt;/div&gt;&lt;/div&gt;" style="edgeLabel;html=1;align=center;verticalAlign=middle;resizable=0;points=[];" vertex="1" connectable="0" parent="IxtSbyAaC3HHmyYaRuv1-24">
          <mxGeometry x="-0.2407" y="-1" relative="1" as="geometry">
            <mxPoint x="2" y="-31" as="offset" />
          </mxGeometry>
        </mxCell>
        <mxCell id="IxtSbyAaC3HHmyYaRuv1-26" value="" style="endArrow=block;dashed=1;endFill=0;endSize=12;html=1;rounded=0;" edge="1" parent="1">
          <mxGeometry width="160" relative="1" as="geometry">
            <mxPoint x="1315" y="375" as="sourcePoint" />
            <mxPoint x="1005" y="375" as="targetPoint" />
            <Array as="points">
              <mxPoint x="1255" y="375" />
            </Array>
          </mxGeometry>
        </mxCell>
        <mxCell id="IxtSbyAaC3HHmyYaRuv1-27" value="Отримання і&amp;nbsp;&lt;div&gt;Оформлення звіту&lt;/div&gt;&lt;div&gt;{&amp;lt;10 секунд}&lt;/div&gt;" style="edgeLabel;html=1;align=center;verticalAlign=middle;resizable=0;points=[];" vertex="1" connectable="0" parent="IxtSbyAaC3HHmyYaRuv1-26">
          <mxGeometry x="0.3124" y="-2" relative="1" as="geometry">
            <mxPoint x="16" y="22" as="offset" />
          </mxGeometry>
        </mxCell>
        <mxCell id="IxtSbyAaC3HHmyYaRuv1-32" value=":Менеджер" style="shape=umlLifeline;perimeter=lifelinePerimeter;whiteSpace=wrap;html=1;container=1;dropTarget=0;collapsible=0;recursiveResize=0;outlineConnect=0;portConstraint=eastwest;newEdgeStyle={&quot;curved&quot;:0,&quot;rounded&quot;:0};" vertex="1" parent="1">
          <mxGeometry x="1660" y="210" width="100" height="370" as="geometry" />
        </mxCell>
        <mxCell id="IxtSbyAaC3HHmyYaRuv1-33" value="" style="html=1;points=[[0,0,0,0,5],[0,1,0,0,-5],[1,0,0,0,5],[1,1,0,0,-5]];perimeter=orthogonalPerimeter;outlineConnect=0;targetShapes=umlLifeline;portConstraint=eastwest;newEdgeStyle={&quot;curved&quot;:0,&quot;rounded&quot;:0};" vertex="1" parent="IxtSbyAaC3HHmyYaRuv1-32">
          <mxGeometry x="45" y="90" width="10" height="280" as="geometry" />
        </mxCell>
        <mxCell id="IxtSbyAaC3HHmyYaRuv1-36" value=":Компанія" style="shape=umlLifeline;perimeter=lifelinePerimeter;whiteSpace=wrap;html=1;container=1;dropTarget=0;collapsible=0;recursiveResize=0;outlineConnect=0;portConstraint=eastwest;newEdgeStyle={&quot;curved&quot;:0,&quot;rounded&quot;:0};" vertex="1" parent="1">
          <mxGeometry x="2050" y="210" width="100" height="340" as="geometry" />
        </mxCell>
        <mxCell id="IxtSbyAaC3HHmyYaRuv1-37" value="" style="html=1;points=[[0,0,0,0,5],[0,1,0,0,-5],[1,0,0,0,5],[1,1,0,0,-5]];perimeter=orthogonalPerimeter;outlineConnect=0;targetShapes=umlLifeline;portConstraint=eastwest;newEdgeStyle={&quot;curved&quot;:0,&quot;rounded&quot;:0};" vertex="1" parent="IxtSbyAaC3HHmyYaRuv1-36">
          <mxGeometry x="45" y="60" width="10" height="300" as="geometry" />
        </mxCell>
        <mxCell id="IxtSbyAaC3HHmyYaRuv1-40" value=":Звіт" style="shape=umlLifeline;perimeter=lifelinePerimeter;whiteSpace=wrap;html=1;container=1;dropTarget=0;collapsible=0;recursiveResize=0;outlineConnect=0;portConstraint=eastwest;newEdgeStyle={&quot;curved&quot;:0,&quot;rounded&quot;:0};" vertex="1" parent="1">
          <mxGeometry x="1780" y="255" width="100" height="285" as="geometry" />
        </mxCell>
        <mxCell id="IxtSbyAaC3HHmyYaRuv1-41" value="" style="html=1;points=[[0,0,0,0,5],[0,1,0,0,-5],[1,0,0,0,5],[1,1,0,0,-5]];perimeter=orthogonalPerimeter;outlineConnect=0;targetShapes=umlLifeline;portConstraint=eastwest;newEdgeStyle={&quot;curved&quot;:0,&quot;rounded&quot;:0};" vertex="1" parent="IxtSbyAaC3HHmyYaRuv1-40">
          <mxGeometry x="45" y="50" width="10" height="270" as="geometry" />
        </mxCell>
        <mxCell id="IxtSbyAaC3HHmyYaRuv1-44" value="" style="endArrow=open;endFill=1;endSize=12;html=1;rounded=0;" edge="1" parent="1" source="IxtSbyAaC3HHmyYaRuv1-32" target="IxtSbyAaC3HHmyYaRuv1-40">
          <mxGeometry width="160" relative="1" as="geometry">
            <mxPoint x="1709.547619047619" y="340" as="sourcePoint" />
            <mxPoint x="1825" y="340" as="targetPoint" />
            <Array as="points">
              <mxPoint x="1760" y="330" />
            </Array>
          </mxGeometry>
        </mxCell>
        <mxCell id="IxtSbyAaC3HHmyYaRuv1-45" value="Створення&lt;div&gt;{t=1 секунда}&lt;/div&gt;" style="edgeLabel;html=1;align=center;verticalAlign=middle;resizable=0;points=[];" vertex="1" connectable="0" parent="IxtSbyAaC3HHmyYaRuv1-44">
          <mxGeometry x="-0.2407" y="-1" relative="1" as="geometry">
            <mxPoint y="-21" as="offset" />
          </mxGeometry>
        </mxCell>
        <mxCell id="IxtSbyAaC3HHmyYaRuv1-46" value="" style="endArrow=open;endFill=1;endSize=12;html=1;rounded=0;" edge="1" parent="1">
          <mxGeometry width="160" relative="1" as="geometry">
            <mxPoint x="1825" y="520" as="sourcePoint" />
            <mxPoint x="1709.4473684210525" y="520" as="targetPoint" />
            <Array as="points">
              <mxPoint x="1790" y="520" />
              <mxPoint x="1770" y="520" />
            </Array>
          </mxGeometry>
        </mxCell>
        <mxCell id="IxtSbyAaC3HHmyYaRuv1-47" value="додати {2 секунди}" style="edgeLabel;html=1;align=center;verticalAlign=middle;resizable=0;points=[];" vertex="1" connectable="0" parent="IxtSbyAaC3HHmyYaRuv1-46">
          <mxGeometry x="0.279" y="1" relative="1" as="geometry">
            <mxPoint x="19" y="-21" as="offset" />
          </mxGeometry>
        </mxCell>
        <mxCell id="IxtSbyAaC3HHmyYaRuv1-59" value="" style="endArrow=open;endFill=1;endSize=12;html=1;rounded=0;" edge="1" parent="1" target="IxtSbyAaC3HHmyYaRuv1-37">
          <mxGeometry width="160" relative="1" as="geometry">
            <mxPoint x="1830" y="384.47" as="sourcePoint" />
            <mxPoint x="2330" y="384.47" as="targetPoint" />
            <Array as="points">
              <mxPoint x="1905" y="384.47" />
              <mxPoint x="1990" y="384" />
            </Array>
          </mxGeometry>
        </mxCell>
        <mxCell id="IxtSbyAaC3HHmyYaRuv1-60" value="Запит&amp;nbsp;&lt;div&gt;інформації&lt;div&gt;{t&amp;lt;50 секунд}&lt;/div&gt;&lt;/div&gt;" style="edgeLabel;html=1;align=center;verticalAlign=middle;resizable=0;points=[];" vertex="1" connectable="0" parent="IxtSbyAaC3HHmyYaRuv1-59">
          <mxGeometry x="-0.2407" y="-1" relative="1" as="geometry">
            <mxPoint x="-21" y="-31" as="offset" />
          </mxGeometry>
        </mxCell>
        <mxCell id="IxtSbyAaC3HHmyYaRuv1-61" value="" style="endArrow=block;dashed=1;endFill=0;endSize=12;html=1;rounded=0;" edge="1" parent="1" source="IxtSbyAaC3HHmyYaRuv1-36">
          <mxGeometry width="160" relative="1" as="geometry">
            <mxPoint x="2335" y="450" as="sourcePoint" />
            <mxPoint x="1830" y="450" as="targetPoint" />
            <Array as="points">
              <mxPoint x="2080" y="450" />
            </Array>
          </mxGeometry>
        </mxCell>
        <mxCell id="IxtSbyAaC3HHmyYaRuv1-62" value="Отримання і&amp;nbsp;&lt;div&gt;Оформлення звіту&lt;/div&gt;&lt;div&gt;{&amp;lt;1 хвилини}&lt;/div&gt;" style="edgeLabel;html=1;align=center;verticalAlign=middle;resizable=0;points=[];" vertex="1" connectable="0" parent="IxtSbyAaC3HHmyYaRuv1-61">
          <mxGeometry x="0.3124" y="-2" relative="1" as="geometry">
            <mxPoint x="17" y="42" as="offset" />
          </mxGeometry>
        </mxCell>
      </root>
    </mxGraphModel>
  </diagram>
</mxfile>
